_Griffith_Gothic-Light_WebTT.ufo
<glyph name="exclam" format="1">
  <advance width="495.616"/>
  <unicode hex="0021"/>
  <outline>
    <contour>
      <point x="248" y="184" type="qcurve" smooth="yes"/>
      <point x="290.537313433" y="184.0"/>
      <point x="348.0" y="128.537313433"/>
      <point x="348" y="86" type="qcurve" smooth="yes"/>
      <point x="348.0" y="43.4626865672"/>
      <point x="290.537313433" y="-14.0"/>
      <point x="248" y="-14" type="qcurve" smooth="yes"/>
      <point x="204.71641791" y="-14.0"/>
      <point x="147.0" y="43.4626865672"/>
      <point x="147" y="86" type="qcurve" smooth="yes"/>
      <point x="147.0" y="128.537313433"/>
      <point x="204.71641791" y="184.0"/>
    </contour>
    <contour>
      <point x="162" y="1475" type="line"/>
      <point x="334" y="1475" type="line"/>
      <point x="283" y="424" type="line"/>
      <point x="213" y="424" type="line"/>
    </contour>
  </outline>
</glyph>
<glyph name="ampersand" format="1">
  <advance width="1378.304"/>
  <unicode hex="0026"/>
  <outline>
    <contour>
      <point x="1384" y="115" type="qcurve"/>
      <point x="1384" y="6" type="line"/>
      <point x="1353.40298507" y="-2.9552238806"/>
      <point x="1300.56716418" y="-12.0"/>
      <point x="1264" y="-12" type="qcurve" smooth="yes"/>
      <point x="1169.2238806" y="-12.0"/>
      <point x="1021.28358209" y="61.2537313433"/>
      <point x="928" y="162" type="qcurve"/>
      <point x="839.194029851" y="74.6865671642"/>
      <point x="629.432835821" y="-20.0"/>
      <point x="516" y="-20" type="qcurve" smooth="yes"/>
      <point x="318.985074627" y="-20.0"/>
      <point x="68.0" y="211.656716418"/>
      <point x="68" y="393" type="qcurve" smooth="yes"/>
      <point x="68.0" y="531.059701493"/>
      <point x="220.985074627" y="753.253731343"/>
      <point x="418" y="854" type="qcurve"/>
      <point x="359.791044776" y="944.298507463"/>
      <point x="291.0" y="1114.65671642"/>
      <point x="291" y="1196" type="qcurve" smooth="yes"/>
      <point x="291.0" y="1325.85074627"/>
      <point x="469.194029851" y="1499.0"/>
      <point x="608" y="1499" type="qcurve" smooth="yes"/>
      <point x="744.567164179" y="1499.0"/>
      <point x="889.0" y="1324.44776119"/>
      <point x="889" y="1214" type="qcurve" smooth="yes"/>
      <point x="889.0" y="1093.85074627"/>
      <point x="728.776119403" y="909.358208955"/>
      <point x="584" y="831" type="qcurve"/>
      <point x="689.223880597" y="669.059701493"/>
      <point x="854.686567164" y="443.223880597"/>
      <point x="942" y="338" type="qcurve"/>
      <point x="1010.65671642" y="428.298507463"/>
      <point x="1123.95522388" y="661.417910448"/>
      <point x="1165" y="795" type="qcurve"/>
      <point x="1276" y="743" type="line"/>
      <point x="1226.74626866" y="599.71641791"/>
      <point x="1093.10447761" y="349.76119403"/>
      <point x="1014" y="252" type="qcurve"/>
      <point x="1099.07462687" y="157.223880597"/>
      <point x="1214.26865672" y="96.0"/>
      <point x="1268" y="96" type="qcurve" smooth="yes"/>
      <point x="1307.55223881" y="96.0"/>
      <point x="1357.13432836" y="105.298507463"/>
    </contour>
    <contour>
      <point x="526" y="86" type="qcurve" smooth="yes"/>
      <point x="617.791044776" y="86.0"/>
      <point x="784.865671642" y="168.626865672"/>
      <point x="858" y="244" type="qcurve"/>
      <point x="781.880597015" y="337.28358209"/>
      <point x="589.417910448" y="596.119402985"/>
      <point x="473" y="770" type="qcurve"/>
      <point x="328.223880597" y="692.388059701"/>
      <point x="207.0" y="514.71641791"/>
      <point x="207" y="408" type="qcurve" smooth="yes"/>
      <point x="207.0" y="272.925373134"/>
      <point x="385.701492537" y="86.0"/>
    </contour>
    <contour>
      <point x="526" y="909" type="qcurve"/>
      <point x="655.850746269" y="976.164179104"/>
      <point x="764.0" y="1121.94029851"/>
      <point x="764" y="1210" type="qcurve" smooth="yes"/>
      <point x="764.0" y="1291.34328358"/>
      <point x="680.865671642" y="1405.0"/>
      <point x="604" y="1405" type="qcurve" smooth="yes"/>
      <point x="510.71641791" y="1405.0"/>
      <point x="420.0" y="1284.8358209"/>
      <point x="420" y="1202" type="qcurve" smooth="yes"/>
      <point x="420.0" y="1134.8358209"/>
      <point x="476.0" y="987.358208955"/>
    </contour>
  </outline>
</glyph>
<glyph name="quotesingle" format="1">
  <advance width="380.928"/>
  <unicode hex="0027"/>
  <outline>
    <contour>
      <point x="115" y="1475" type="line"/>
      <point x="266" y="1475" type="line"/>
      <point x="231" y="1034" type="line"/>
      <point x="150" y="1034" type="line"/>
    </contour>
  </outline>
</glyph>
<glyph name="asterisk" format="1">
  <advance width="901.12"/>
  <unicode hex="002A"/>
  <outline>
    <contour>
      <point x="778" y="1292" type="line"/>
      <point x="819" y="1167" type="line"/>
      <point x="496" y="1104" type="line"/>
      <point x="725" y="862" type="line"/>
      <point x="616" y="782" type="line"/>
      <point x="451" y="1077" type="line"/>
      <point x="285" y="782" type="line"/>
      <point x="176" y="862" type="line"/>
      <point x="406" y="1104" type="line"/>
      <point x="82" y="1167" type="line"/>
      <point x="125" y="1294" type="line"/>
      <point x="424" y="1149" type="line"/>
      <point x="383" y="1475" type="line"/>
      <point x="518" y="1475" type="line"/>
      <point x="477" y="1149" type="line"/>
    </contour>
  </outline>
</glyph>
<glyph name="comma" format="1">
  <advance width="380.928"/>
  <unicode hex="002C"/>
  <outline>
    <contour>
      <point x="133" y="197" type="line"/>
      <point x="291" y="197" type="line"/>
      <point x="150" y="-244" type="line"/>
      <point x="63" y="-244" type="line"/>
    </contour>
  </outline>
</glyph>
<glyph name="zero" format="1">
  <advance width="1220.608"/>
  <unicode hex="0030"/>
  <outline>
    <contour>
      <point x="1112" y="756" type="qcurve" smooth="yes"/>
      <point x="1112" y="721" type="line" smooth="yes"/>
      <point x="1112.0" y="381.447761194"/>
      <point x="844.328358209" y="-25.0"/>
      <point x="610" y="-25" type="qcurve" smooth="yes"/>
      <point x="376.417910448" y="-25.0"/>
      <point x="106.0" y="379.447761194"/>
      <point x="106" y="719" type="qcurve" smooth="yes"/>
      <point x="106" y="754" type="line" smooth="yes"/>
      <point x="106.0" y="1092.80597015"/>
      <point x="376.417910448" y="1499.0"/>
      <point x="610" y="1499" type="qcurve" smooth="yes"/>
      <point x="844.328358209" y="1499.0"/>
      <point x="1112.0" y="1094.80597015"/>
    </contour>
    <contour>
      <point x="610" y="90" type="qcurve" smooth="yes"/>
      <point x="787.611940299" y="90.0"/>
      <point x="965.0" y="444.074626866"/>
      <point x="965" y="709" type="qcurve" smooth="yes"/>
      <point x="965" y="762" type="line" smooth="yes"/>
      <point x="965.0" y="1026.17910448"/>
      <point x="787.611940299" y="1384.0"/>
      <point x="610" y="1384" type="qcurve" smooth="yes"/>
      <point x="431.641791045" y="1384.0"/>
      <point x="254.0" y="1028.68656716"/>
      <point x="254" y="766" type="qcurve" smooth="yes"/>
      <point x="254" y="713" type="line" smooth="yes"/>
      <point x="254.0" y="448.074626866"/>
      <point x="431.641791045" y="90.0"/>
    </contour>
  </outline>
</glyph>
<glyph name="four" format="1">
  <advance width="1175.552"/>
  <unicode hex="0034"/>
  <outline>
    <contour>
      <point x="1098" y="512" type="line"/>
      <point x="1098" y="416" type="line"/>
      <point x="903" y="416" type="line"/>
      <point x="903" y="0" type="line"/>
      <point x="762" y="0" type="line"/>
      <point x="762" y="416" type="line"/>
      <point x="80" y="416" type="line"/>
      <point x="80" y="551" type="line"/>
      <point x="696" y="1475" type="line"/>
      <point x="903" y="1475" type="line"/>
      <point x="903" y="512" type="line"/>
    </contour>
    <contour>
      <point x="190" y="512" type="line"/>
      <point x="762" y="512" type="line"/>
      <point x="762" y="1354" type="line"/>
      <point x="735" y="1354" type="line"/>
      <point x="190" y="539" type="line"/>
    </contour>
  </outline>
</glyph>
<glyph name="six" format="1">
  <advance width="1142.784"/>
  <unicode hex="0036"/>
  <outline>
    <contour>
      <point x="639" y="918" type="qcurve" smooth="yes"/>
      <point x="822.582089552" y="918.0"/>
      <point x="1077.0" y="674.671641791"/>
      <point x="1077" y="459" type="qcurve" smooth="yes"/>
      <point x="1077.0" y="241.835820896"/>
      <point x="787.970149254" y="-25.0"/>
      <point x="582" y="-25" type="qcurve" smooth="yes"/>
      <point x="373.791044776" y="-25.0"/>
      <point x="98.0" y="244.805970149"/>
      <point x="98" y="506" type="qcurve" smooth="yes"/>
      <point x="98.0" y="758.23880597"/>
      <point x="345.865671642" y="1269.7761194"/>
      <point x="569" y="1475" type="qcurve"/>
      <point x="750" y="1475" type="line"/>
      <point x="543.28358209" y="1303.35820896"/>
      <point x="282.089552239" y="902.134328358"/>
      <point x="250" y="729" type="qcurve"/>
      <point x="264" y="729" type="line"/>
      <point x="334.149253731" y="816.313432836"/>
      <point x="512.134328358" y="918.0"/>
    </contour>
    <contour>
      <point x="586" y="82" type="qcurve" smooth="yes"/>
      <point x="733.76119403" y="82.0"/>
      <point x="936.0" y="284.343283582"/>
      <point x="936" y="453" type="qcurve" smooth="yes"/>
      <point x="936.0" y="616.432835821"/>
      <point x="754.985074627" y="811.0"/>
      <point x="602" y="811" type="qcurve" smooth="yes"/>
      <point x="444.537313433" y="811.0"/>
      <point x="242.0" y="600.253731343"/>
      <point x="242" y="451" type="qcurve" smooth="yes"/>
      <point x="242.0" y="286.820895522"/>
      <point x="437.492537313" y="82.0"/>
    </contour>
  </outline>
</glyph>
<glyph name="nine" format="1">
  <advance width="1142.784"/>
  <unicode hex="0039"/>
  <outline>
    <contour>
      <point x="561" y="1499" type="qcurve" smooth="yes"/>
      <point x="769.208955224" y="1499.0"/>
      <point x="1044.0" y="1230.19402985"/>
      <point x="1044" y="969" type="qcurve" smooth="yes"/>
      <point x="1044.0" y="716.76119403"/>
      <point x="796.134328358" y="204.47761194"/>
      <point x="573" y="0" type="qcurve"/>
      <point x="393" y="0" type="line"/>
      <point x="599.71641791" y="170.895522388"/>
      <point x="858.910447761" y="572.611940299"/>
      <point x="891" y="745" type="qcurve"/>
      <point x="879" y="745" type="line"/>
      <point x="808.104477612" y="658.432835821"/>
      <point x="630.865671642" y="557.0"/>
      <point x="504" y="557" type="qcurve" smooth="yes"/>
      <point x="320.417910448" y="557.0"/>
      <point x="63.0" y="800.328358209"/>
      <point x="63" y="1016" type="qcurve" smooth="yes"/>
      <point x="63.0" y="1233.1641791"/>
      <point x="355.029850746" y="1499.0"/>
    </contour>
    <contour>
      <point x="541" y="664" type="qcurve" smooth="yes"/>
      <point x="698.462686567" y="664.0"/>
      <point x="901.0" y="874.0"/>
      <point x="901" y="1024" type="qcurve" smooth="yes"/>
      <point x="901.0" y="1187.43283582"/>
      <point x="704.014925373" y="1393.0"/>
      <point x="557" y="1393" type="qcurve" smooth="yes"/>
      <point x="408.492537313" y="1393.0"/>
      <point x="207.0" y="1189.91044776"/>
      <point x="207" y="1022" type="qcurve" smooth="yes"/>
      <point x="207.0" y="858.567164179"/>
      <point x="388.014925373" y="664.0"/>
    </contour>
  </outline>
</glyph>
<glyph name="colon" format="1">
  <advance width="417.792"/>
  <unicode hex="003A"/>
  <outline>
    <contour>
      <point x="209" y="188" type="qcurve" smooth="yes"/>
      <point x="253.029850746" y="188.0"/>
      <point x="311.0" y="130.537313433"/>
      <point x="311" y="88" type="qcurve" smooth="yes"/>
      <point x="311.0" y="43.9701492537"/>
      <point x="253.029850746" y="-14.0"/>
      <point x="209" y="-14" type="qcurve" smooth="yes"/>
      <point x="164.970149254" y="-14.0"/>
      <point x="109.0" y="43.9701492537"/>
      <point x="109" y="88" type="qcurve" smooth="yes"/>
      <point x="109.0" y="130.537313433"/>
      <point x="164.970149254" y="188.0"/>
    </contour>
    <contour>
      <point x="209" y="1067" type="qcurve" smooth="yes"/>
      <point x="253.029850746" y="1067.0"/>
      <point x="311.0" y="1009.53731343"/>
      <point x="311" y="967" type="qcurve" smooth="yes"/>
      <point x="311.0" y="922.223880597"/>
      <point x="253.029850746" y="864.0"/>
      <point x="209" y="864" type="qcurve" smooth="yes"/>
      <point x="164.970149254" y="864.0"/>
      <point x="109.0" y="922.223880597"/>
      <point x="109" y="967" type="qcurve" smooth="yes"/>
      <point x="109.0" y="1009.53731343"/>
      <point x="164.970149254" y="1067.0"/>
    </contour>
  </outline>
</glyph>
<glyph name="semicolon" format="1">
  <advance width="417.792"/>
  <unicode hex="003B"/>
  <outline>
    <contour>
      <point x="211" y="1067" type="qcurve" smooth="yes"/>
      <point x="253.537313433" y="1067.0"/>
      <point x="311.0" y="1009.53731343"/>
      <point x="311" y="967" type="qcurve" smooth="yes"/>
      <point x="311.0" y="922.223880597"/>
      <point x="253.537313433" y="864.0"/>
      <point x="211" y="864" type="qcurve" smooth="yes"/>
      <point x="166.970149254" y="864.0"/>
      <point x="109.0" y="922.223880597"/>
      <point x="109" y="967" type="qcurve" smooth="yes"/>
      <point x="109.0" y="1009.53731343"/>
      <point x="166.970149254" y="1067.0"/>
    </contour>
    <contour>
      <point x="133" y="197" type="line"/>
      <point x="291" y="197" type="line"/>
      <point x="150" y="-244" type="line"/>
      <point x="63" y="-244" type="line"/>
    </contour>
  </outline>
</glyph>
<glyph name="at" format="1">
  <advance width="2058.24"/>
  <unicode hex="0040"/>
  <outline>
    <contour>
      <point x="1071" y="1499" type="qcurve" smooth="yes"/>
      <point x="1436.67164179" y="1499.0"/>
      <point x="1939.0" y="1050.65671642"/>
      <point x="1939" y="682" type="qcurve" smooth="yes"/>
      <point x="1939.0" y="409.611940299"/>
      <point x="1647.10447761" y="63.0"/>
      <point x="1468" y="63" type="qcurve" smooth="yes"/>
      <point x="1349.34328358" y="63.0"/>
      <point x="1226.97014925" y="200.313432836"/>
      <point x="1221" y="313" type="qcurve"/>
      <point x="1210" y="313" type="line"/>
      <point x="1138.35820896" y="195.835820896"/>
      <point x="965.28358209" y="63.0"/>
      <point x="872" y="63" type="qcurve" smooth="yes"/>
      <point x="751.850746269" y="63.0"/>
      <point x="604.0" y="250.059701493"/>
      <point x="604" y="412" type="qcurve" smooth="yes"/>
      <point x="604.0" y="659.014925373"/>
      <point x="831.880597015" y="1053.0"/>
      <point x="1008" y="1053" type="qcurve" smooth="yes"/>
      <point x="1116.20895522" y="1053.0"/>
      <point x="1240.41791045" y="910.731343284"/>
      <point x="1274" y="807" type="qcurve"/>
      <point x="1284" y="805" type="line"/>
      <point x="1325" y="1049" type="line"/>
      <point x="1446" y="1010" type="line"/>
      <point x="1337" y="395" type="line" smooth="yes"/>
      <point x="1319.08955224" y="288.28358209"/>
      <point x="1391.7761194" y="131.0"/>
      <point x="1497" y="131" type="qcurve" smooth="yes"/>
      <point x="1632.82089552" y="131.0"/>
      <point x="1862.0" y="442.179104478"/>
      <point x="1862" y="678" type="qcurve" smooth="yes"/>
      <point x="1862.0" y="1025.01492537"/>
      <point x="1413.50746269" y="1434.0"/>
      <point x="1065" y="1434" type="qcurve" smooth="yes"/>
      <point x="701.567164179" y="1434.0"/>
      <point x="199.0" y="914.402985075"/>
      <point x="199" y="545" type="qcurve" smooth="yes"/>
      <point x="199.0" y="155.447761194"/>
      <point x="666.402985075" y="-328.0"/>
      <point x="1047" y="-328" type="qcurve" smooth="yes"/>
      <point x="1231.32835821" y="-328.0"/>
      <point x="1516.94029851" y="-253.373134328"/>
      <point x="1655" y="-178" type="qcurve"/>
      <point x="1688" y="-233" type="line"/>
      <point x="1545.46268657" y="-309.865671642"/>
      <point x="1241.25373134" y="-393.0"/>
      <point x="1042" y="-393" type="qcurve" smooth="yes"/>
      <point x="629.313432836" y="-393.0"/>
      <point x="121.0" y="122.850746269"/>
      <point x="121" y="543" type="qcurve" smooth="yes"/>
      <point x="121.0" y="945.985074627"/>
      <point x="682.940298507" y="1499.0"/>
    </contour>
    <contour>
      <point x="918" y="152" type="qcurve" smooth="yes"/>
      <point x="1042.62686567" y="152.0"/>
      <point x="1253.0" y="473.626865672"/>
      <point x="1253" y="649" type="qcurve" smooth="yes"/>
      <point x="1253.0" y="762.432835821"/>
      <point x="1135.25373134" y="956.0"/>
      <point x="1036" y="956" type="qcurve" smooth="yes"/>
      <point x="907.641791045" y="956.0"/>
      <point x="731.0" y="646.626865672"/>
      <point x="731" y="422" type="qcurve" smooth="yes"/>
      <point x="731.0" y="299.611940299"/>
      <point x="829.194029851" y="152.0"/>
    </contour>
  </outline>
</glyph>
<glyph name="A" format="1">
  <advance width="1363.968"/>
  <unicode hex="0041"/>
  <outline>
    <contour>
      <point x="782" y="1483" type="line"/>
      <point x="1307" y="0" type="line"/>
      <point x="1157" y="0" type="line"/>
      <point x="1022" y="393" type="line"/>
      <point x="336" y="393" type="line"/>
      <point x="201" y="0" type="line"/>
      <point x="57" y="0" type="line"/>
      <point x="582" y="1483" type="line"/>
    </contour>
    <contour>
      <point x="369" y="500" type="line"/>
      <point x="989" y="500" type="line"/>
      <point x="688" y="1366" type="line"/>
      <point x="670" y="1366" type="line"/>
    </contour>
  </outline>
</glyph>
<glyph name="E" format="1">
  <advance width="1138.688"/>
  <unicode hex="0045"/>
  <outline>
    <contour>
      <point x="1059" y="117" type="line"/>
      <point x="1059" y="0" type="line"/>
      <point x="172" y="0" type="line"/>
      <point x="172" y="1475" type="line"/>
      <point x="1034" y="1475" type="line"/>
      <point x="1034" y="1358" type="line"/>
      <point x="317" y="1358" type="line"/>
      <point x="317" y="827" type="line"/>
      <point x="915" y="827" type="line"/>
      <point x="915" y="715" type="line"/>
      <point x="317" y="715" type="line"/>
      <point x="317" y="117" type="line"/>
    </contour>
  </outline>
</glyph>
<glyph name="G" format="1">
  <advance width="1265.664"/>
  <unicode hex="0047"/>
  <outline>
    <contour>
      <point x="1147" y="684" type="line"/>
      <point x="1147" y="0" type="line"/>
      <point x="1065" y="0" type="line"/>
      <point x="1055" y="428" type="line"/>
      <point x="1044" y="428" type="line"/>
      <point x="996.985074627" y="222.029850746"/>
      <point x="798.567164179" y="-25.0"/>
      <point x="612" y="-25" type="qcurve" smooth="yes"/>
      <point x="381.402985075" y="-25.0"/>
      <point x="109.0" y="380.462686567"/>
      <point x="109" y="723" type="qcurve" smooth="yes"/>
      <point x="109" y="750" type="line" smooth="yes"/>
      <point x="109.0" y="1090.29850746"/>
      <point x="386.701492537" y="1499.0"/>
      <point x="627" y="1499" type="qcurve" smooth="yes"/>
      <point x="813.567164179" y="1499.0"/>
      <point x="1039.76119403" y="1284.3880597"/>
      <point x="1092" y="1112" type="qcurve"/>
      <point x="956" y="1069" type="line"/>
      <point x="913.462686567" y="1214.52238806"/>
      <point x="755.358208955" y="1384.0"/>
      <point x="627" y="1384" type="qcurve" smooth="yes"/>
      <point x="443.417910448" y="1384.0"/>
      <point x="256.0" y="1032.14925373"/>
      <point x="256" y="762" type="qcurve" smooth="yes"/>
      <point x="256" y="717" type="line" smooth="yes"/>
      <point x="256.0" y="443.119402985"/>
      <point x="448.880597015" y="90.0"/>
      <point x="625" y="90" type="qcurve" smooth="yes"/>
      <point x="783.955223881" y="90.0"/>
      <point x="954.373134328" y="357.701492537"/>
      <point x="979" y="598" type="qcurve"/>
      <point x="645" y="598" type="line"/>
      <point x="645" y="684" type="line"/>
    </contour>
  </outline>
</glyph>
<glyph name="H" format="1">
  <advance width="1284.096"/>
  <unicode hex="0048"/>
  <outline>
    <contour>
      <point x="1112" y="1475" type="line"/>
      <point x="1112" y="0" type="line"/>
      <point x="965" y="0" type="line"/>
      <point x="965" y="711" type="line"/>
      <point x="319" y="711" type="line"/>
      <point x="319" y="0" type="line"/>
      <point x="172" y="0" type="line"/>
      <point x="172" y="1475" type="line"/>
      <point x="319" y="1475" type="line"/>
      <point x="319" y="834" type="line"/>
      <point x="965" y="834" type="line"/>
      <point x="965" y="1475" type="line"/>
    </contour>
  </outline>
</glyph>
<glyph name="J" format="1">
  <advance width="995.328"/>
  <unicode hex="004A"/>
  <outline>
    <contour>
      <point x="836" y="1475" type="line"/>
      <point x="836" y="412" type="line" smooth="yes"/>
      <point x="836.0" y="208.268656716"/>
      <point x="634.059701493" y="-25.0"/>
      <point x="446" y="-25" type="qcurve" smooth="yes"/>
      <point x="267.641791045" y="-25.0"/>
      <point x="56.9701492537" y="166.28358209"/>
      <point x="51" y="373" type="qcurve"/>
      <point x="188" y="416" type="line"/>
      <point x="191.731343284" y="229.432835821"/>
      <point x="340.552238806" y="92.0"/>
      <point x="451" y="92" type="qcurve" smooth="yes"/>
      <point x="557.71641791" y="92.0"/>
      <point x="688.0" y="243.313432836"/>
      <point x="688" y="406" type="qcurve" smooth="yes"/>
      <point x="688" y="1475" type="line"/>
    </contour>
  </outline>
</glyph>
<glyph name="M" format="1">
  <advance width="1699.84"/>
  <unicode hex="004D"/>
  <outline>
    <contour>
      <point x="1528" y="1475" type="line"/>
      <point x="1528" y="0" type="line"/>
      <point x="1386" y="0" type="line"/>
      <point x="1386" y="1339" type="line"/>
      <point x="1366" y="1339" type="line"/>
      <point x="930" y="0" type="line"/>
      <point x="764" y="0" type="line"/>
      <point x="328" y="1339" type="line"/>
      <point x="307" y="1339" type="line"/>
      <point x="307" y="0" type="line"/>
      <point x="172" y="0" type="line"/>
      <point x="172" y="1475" type="line"/>
      <point x="426" y="1475" type="line"/>
      <point x="844" y="172" type="line"/>
      <point x="860" y="172" type="line"/>
      <point x="1278" y="1475" type="line"/>
    </contour>
  </outline>
</glyph>
<glyph name="N" format="1">
  <advance width="1318.912"/>
  <unicode hex="004E"/>
  <outline>
    <contour>
      <point x="1147" y="1475" type="line"/>
      <point x="1147" y="0" type="line"/>
      <point x="965" y="0" type="line"/>
      <point x="324" y="1286" type="line"/>
      <point x="309" y="1286" type="line"/>
      <point x="309" y="0" type="line"/>
      <point x="172" y="0" type="line"/>
      <point x="172" y="1475" type="line"/>
      <point x="367" y="1475" type="line"/>
      <point x="993" y="215" type="line"/>
      <point x="1010" y="215" type="line"/>
      <point x="1010" y="1475" type="line"/>
    </contour>
  </outline>
</glyph>
<glyph name="O" format="1">
  <advance width="1263.616"/>
  <unicode hex="004F"/>
  <outline>
    <contour>
      <point x="1155" y="752" type="qcurve" smooth="yes"/>
      <point x="1155" y="725" type="line" smooth="yes"/>
      <point x="1155.0" y="383.955223881"/>
      <point x="877.268656716" y="-25.0"/>
      <point x="631" y="-25" type="qcurve" smooth="yes"/>
      <point x="386.223880597" y="-25.0"/>
      <point x="109.0" y="380.462686567"/>
      <point x="109" y="723" type="qcurve" smooth="yes"/>
      <point x="109" y="750" type="line" smooth="yes"/>
      <point x="109.0" y="1090.29850746"/>
      <point x="386.223880597" y="1499.0"/>
      <point x="631" y="1499" type="qcurve" smooth="yes"/>
      <point x="877.268656716" y="1499.0"/>
      <point x="1155.0" y="1093.79104478"/>
    </contour>
    <contour>
      <point x="631" y="90" type="qcurve" smooth="yes"/>
      <point x="820.552238806" y="90.0"/>
      <point x="1006.0" y="440.611940299"/>
      <point x="1006" y="713" type="qcurve" smooth="yes"/>
      <point x="1006" y="758" type="line" smooth="yes"/>
      <point x="1006.0" y="1029.64179104"/>
      <point x="820.552238806" y="1384.0"/>
      <point x="631" y="1384" type="qcurve" smooth="yes"/>
      <point x="442.940298507" y="1384.0"/>
      <point x="256.0" y="1032.14925373"/>
      <point x="256" y="762" type="qcurve" smooth="yes"/>
      <point x="256" y="717" type="line" smooth="yes"/>
      <point x="256.0" y="443.119402985"/>
      <point x="442.940298507" y="90.0"/>
    </contour>
  </outline>
</glyph>
<glyph name="P" format="1">
  <advance width="1169.408"/>
  <unicode hex="0050"/>
  <outline>
    <contour>
      <point x="606" y="1475" type="line" smooth="yes"/>
      <point x="832.119402985" y="1475.0"/>
      <point x="1087.0" y="1257.98507463"/>
      <point x="1087" y="1055" type="qcurve" smooth="yes"/>
      <point x="1087.0" y="849.776119403"/>
      <point x="831.074626866" y="627.0"/>
      <point x="596" y="627" type="qcurve" smooth="yes"/>
      <point x="319" y="627" type="line"/>
      <point x="319" y="0" type="line"/>
      <point x="172" y="0" type="line"/>
      <point x="172" y="1475" type="line"/>
    </contour>
    <contour>
      <point x="600" y="739" type="line" smooth="yes"/>
      <point x="763.432835821" y="739.0"/>
      <point x="942.0" y="896.52238806"/>
      <point x="942" y="1051" type="qcurve" smooth="yes"/>
      <point x="942.0" y="1200.25373134"/>
      <point x="764.388059701" y="1364.0"/>
      <point x="592" y="1364" type="qcurve" smooth="yes"/>
      <point x="315" y="1364" type="line"/>
      <point x="315" y="739" type="line"/>
    </contour>
  </outline>
</glyph>
<glyph name="R" format="1">
  <advance width="1224.704"/>
  <unicode hex="0052"/>
  <outline>
    <contour>
      <point x="719" y="670" type="qcurve"/>
      <point x="1147" y="0" type="line"/>
      <point x="983" y="0" type="line"/>
      <point x="569" y="655" type="line"/>
      <point x="319" y="655" type="line"/>
      <point x="319" y="0" type="line"/>
      <point x="172" y="0" type="line"/>
      <point x="172" y="1475" type="line"/>
      <point x="629" y="1475" type="line" smooth="yes"/>
      <point x="853.626865672" y="1475.0"/>
      <point x="1106.0" y="1269.98507463"/>
      <point x="1106" y="1067" type="qcurve" smooth="yes"/>
      <point x="1106.0" y="890.880597015"/>
      <point x="905.567164179" y="687.910447761"/>
    </contour>
    <contour>
      <point x="618" y="764" type="line" smooth="yes"/>
      <point x="783.671641791" y="764.0"/>
      <point x="961.0" y="908.52238806"/>
      <point x="961" y="1063" type="qcurve" smooth="yes"/>
      <point x="961.0" y="1213.0"/>
      <point x="783.134328358" y="1364.0"/>
      <point x="610" y="1364" type="qcurve" smooth="yes"/>
      <point x="315" y="1364" type="line"/>
      <point x="315" y="764" type="line"/>
    </contour>
  </outline>
</glyph>
<glyph name="U" format="1">
  <advance width="1280.0"/>
  <unicode hex="0055"/>
  <outline>
    <contour>
      <point x="1118" y="1475" type="line"/>
      <point x="1118" y="506" type="line" smooth="yes"/>
      <point x="1118.0" y="226.149253731"/>
      <point x="843.47761194" y="-25.0"/>
      <point x="639" y="-25" type="qcurve" smooth="yes"/>
      <point x="434.52238806" y="-25.0"/>
      <point x="162.0" y="226.149253731"/>
      <point x="162" y="506" type="qcurve" smooth="yes"/>
      <point x="162" y="1475" type="line"/>
      <point x="307" y="1475" type="line"/>
      <point x="307" y="508" type="line" smooth="yes"/>
      <point x="307.0" y="287.850746269"/>
      <point x="495.0" y="92.0"/>
      <point x="645" y="92" type="qcurve" smooth="yes"/>
      <point x="795.0" y="92.0"/>
      <point x="981.0" y="281.343283582"/>
      <point x="981" y="500" type="qcurve" smooth="yes"/>
      <point x="981" y="1475" type="line"/>
    </contour>
  </outline>
</glyph>
<glyph name="bracketleft" format="1">
  <advance width="694.272"/>
  <unicode hex="005B"/>
  <outline>
    <contour>
      <point x="643" y="-84" type="line"/>
      <point x="643" y="-164" type="line"/>
      <point x="141" y="-180" type="line"/>
      <point x="141" y="1491" type="line"/>
      <point x="643" y="1475" type="line"/>
      <point x="643" y="1395" type="line"/>
      <point x="274" y="1409" type="line"/>
      <point x="274" y="-98" type="line"/>
    </contour>
  </outline>
</glyph>
<glyph name="bracketright" format="1">
  <advance width="694.272"/>
  <unicode hex="005D"/>
  <outline>
    <contour>
      <point x="553" y="1491" type="line"/>
      <point x="553" y="-180" type="line"/>
      <point x="51" y="-164" type="line"/>
      <point x="51" y="-84" type="line"/>
      <point x="422" y="-98" type="line"/>
      <point x="422" y="1409" type="line"/>
      <point x="51" y="1395" type="line"/>
      <point x="51" y="1475" type="line"/>
    </contour>
  </outline>
</glyph>
<glyph name="asciicircum" format="1">
  <advance width="1126.4"/>
  <unicode hex="005E"/>
  <outline>
    <contour>
      <point x="633" y="1485" type="line"/>
      <point x="1022" y="834" type="line"/>
      <point x="926" y="834" type="line"/>
      <point x="563" y="1354" type="line"/>
      <point x="201" y="834" type="line"/>
      <point x="104" y="834" type="line"/>
      <point x="494" y="1485" type="line"/>
    </contour>
  </outline>
</glyph>
<glyph name="f" format="1">
  <advance width="665.6"/>
  <unicode hex="0066"/>
  <outline>
    <contour>
      <point x="700" y="1528" type="qcurve"/>
      <point x="700" y="1415" type="line"/>
      <point x="666.417910448" y="1433.65671642"/>
      <point x="584.208955224" y="1456.0"/>
      <point x="526" y="1456" type="qcurve" smooth="yes"/>
      <point x="457.343283582" y="1456.0"/>
      <point x="383.0" y="1370.29850746"/>
      <point x="383" y="1280" type="qcurve" smooth="yes"/>
      <point x="383" y="1049" type="line"/>
      <point x="647" y="1049" type="line"/>
      <point x="647" y="950" type="line"/>
      <point x="383" y="950" type="line"/>
      <point x="383" y="0" type="line"/>
      <point x="248" y="0" type="line"/>
      <point x="248" y="950" type="line"/>
      <point x="35" y="950" type="line"/>
      <point x="35" y="1049" type="line"/>
      <point x="248" y="1049" type="line"/>
      <point x="248" y="1274" type="line" smooth="yes"/>
      <point x="248.0" y="1414.29850746"/>
      <point x="393.104477612" y="1554.0"/>
      <point x="514" y="1554" type="qcurve" smooth="yes"/>
      <point x="578.179104478" y="1554.0"/>
      <point x="663.432835821" y="1539.94029851"/>
    </contour>
  </outline>
</glyph>
<glyph name="h" format="1">
  <advance width="1009.664"/>
  <unicode hex="0068"/>
  <outline>
    <contour>
      <point x="874" y="829" type="qcurve" smooth="yes"/>
      <point x="874" y="0" type="line"/>
      <point x="739" y="0" type="line"/>
      <point x="739" y="801" type="line" smooth="yes"/>
      <point x="739.0" y="883.089552239"/>
      <point x="666.656716418" y="969.0"/>
      <point x="598" y="969" type="qcurve" smooth="yes"/>
      <point x="523.373134328" y="969.0"/>
      <point x="356.611940299" y="834.373134328"/>
      <point x="279" y="709" type="qcurve"/>
      <point x="279" y="0" type="line"/>
      <point x="143" y="0" type="line"/>
      <point x="143" y="1511" type="line"/>
      <point x="279" y="1559" type="line"/>
      <point x="279" y="805" type="line"/>
      <point x="291" y="805" type="line"/>
      <point x="373.089552239" y="924.402985075"/>
      <point x="552.28358209" y="1069.0"/>
      <point x="659" y="1069" type="qcurve" smooth="yes"/>
      <point x="767.955223881" y="1069.0"/>
      <point x="874.0" y="934.970149254"/>
    </contour>
  </outline>
</glyph>
<glyph name="i" format="1">
  <advance width="458.752"/>
  <unicode hex="0069"/>
  <outline>
    <contour>
      <point x="297" y="1059" type="line"/>
      <point x="297" y="0" type="line"/>
      <point x="162" y="0" type="line"/>
      <point x="162" y="1059" type="line"/>
    </contour>
    <contour>
      <point x="313" y="1479" type="line"/>
      <point x="313" y="1305" type="line"/>
      <point x="145" y="1305" type="line"/>
      <point x="145" y="1479" type="line"/>
    </contour>
  </outline>
</glyph>
<glyph name="l" format="1">
  <advance width="458.752"/>
  <unicode hex="006C"/>
  <outline>
    <contour>
      <point x="297" y="1559" type="line"/>
      <point x="297" y="0" type="line"/>
      <point x="162" y="0" type="line"/>
      <point x="162" y="1511" type="line"/>
    </contour>
  </outline>
</glyph>
<glyph name="o" format="1">
  <advance width="1007.616"/>
  <unicode hex="006F"/>
  <outline>
    <contour>
      <point x="920" y="539" type="qcurve" smooth="yes"/>
      <point x="920" y="524" type="line" smooth="yes"/>
      <point x="920.0" y="285.940298507"/>
      <point x="695.044776119" y="-20.0"/>
      <point x="504" y="-20" type="qcurve" smooth="yes"/>
      <point x="312.955223881" y="-20.0"/>
      <point x="86.0" y="281.940298507"/>
      <point x="86" y="520" type="qcurve" smooth="yes"/>
      <point x="86" y="535" type="line" smooth="yes"/>
      <point x="86.0" y="773.059701493"/>
      <point x="312.955223881" y="1079.0"/>
      <point x="504" y="1079" type="qcurve" smooth="yes"/>
      <point x="695.044776119" y="1079.0"/>
      <point x="920.0" y="777.059701493"/>
    </contour>
    <contour>
      <point x="504" y="74" type="qcurve" smooth="yes"/>
      <point x="638.328358209" y="74.0"/>
      <point x="784.0" y="320.0"/>
      <point x="784" y="520" type="qcurve" smooth="yes"/>
      <point x="784" y="535" type="line" smooth="yes"/>
      <point x="784.0" y="736.492537313"/>
      <point x="638.328358209" y="985.0"/>
      <point x="504" y="985" type="qcurve" smooth="yes"/>
      <point x="369.671641791" y="985.0"/>
      <point x="221.0" y="739.0"/>
      <point x="221" y="539" type="qcurve" smooth="yes"/>
      <point x="221" y="524" type="line" smooth="yes"/>
      <point x="221.0" y="321.014925373"/>
      <point x="369.671641791" y="74.0"/>
    </contour>
  </outline>
</glyph>
<glyph name="q" format="1">
  <advance width="1050.624"/>
  <unicode hex="0071"/>
  <outline>
    <contour>
      <point x="907" y="1030" type="line"/>
      <point x="907" y="-385" type="line"/>
      <point x="772" y="-385" type="line"/>
      <point x="772" y="231" type="line"/>
      <point x="760" y="231" type="line"/>
      <point x="698.805970149" y="116.820895522"/>
      <point x="553.432835821" y="-20.0"/>
      <point x="440" y="-20" type="qcurve" smooth="yes"/>
      <point x="292.23880597" y="-20.0"/>
      <point x="88.0" y="254.328358209"/>
      <point x="88" y="520" type="qcurve" smooth="yes"/>
      <point x="88" y="535" type="line" smooth="yes"/>
      <point x="88.0" y="799.179104478"/>
      <point x="303.701492537" y="1077.0"/>
      <point x="444" y="1077" type="qcurve" smooth="yes"/>
      <point x="552.955223881" y="1077.0"/>
      <point x="703.28358209" y="942.432835821"/>
      <point x="760" y="829" type="qcurve"/>
      <point x="772" y="829" type="line"/>
      <point x="772" y="1077" type="line"/>
    </contour>
    <contour>
      <point x="485" y="78" type="qcurve" smooth="yes"/>
      <point x="607.388059701" y="78.0"/>
      <point x="776.0" y="350.149253731"/>
      <point x="776" y="530" type="qcurve" smooth="yes"/>
      <point x="776.0" y="709.104477612"/>
      <point x="608.373134328" y="981.0"/>
      <point x="483" y="981" type="qcurve" smooth="yes"/>
      <point x="377.776119403" y="981.0"/>
      <point x="221.0" y="761.343283582"/>
      <point x="221" y="530" type="qcurve" smooth="yes"/>
      <point x="221.0" y="290.447761194"/>
      <point x="381.268656716" y="78.0"/>
    </contour>
  </outline>
</glyph>
<glyph name="r" format="1">
  <advance width="757.76"/>
  <unicode hex="0072"/>
  <outline>
    <contour>
      <point x="723" y="1077" type="qcurve"/>
      <point x="723" y="926" type="line"/>
      <point x="590.164179104" y="896.895522388"/>
      <point x="359.597014925" y="693.835820896"/>
      <point x="279" y="561" type="qcurve"/>
      <point x="279" y="0" type="line"/>
      <point x="143" y="0" type="line"/>
      <point x="143" y="1030" type="line"/>
      <point x="279" y="1077" type="line"/>
      <point x="279" y="662" type="line"/>
      <point x="291" y="662" type="line"/>
      <point x="394.731343284" y="840.358208955"/>
      <point x="611.059701493" y="1054.6119403"/>
    </contour>
  </outline>
</glyph>
<glyph name="t" format="1">
  <advance width="727.04"/>
  <unicode hex="0074"/>
  <outline>
    <contour>
      <point x="684" y="160" type="qcurve"/>
      <point x="684" y="49" type="line"/>
      <point x="622.805970149" y="13.9253731343"/>
      <point x="508.686567164" y="-20.0"/>
      <point x="446" y="-20" type="qcurve" smooth="yes"/>
      <point x="351.223880597" y="-20.0"/>
      <point x="229.0" y="78.5820895522"/>
      <point x="229" y="195" type="qcurve" smooth="yes"/>
      <point x="229" y="950" type="line"/>
      <point x="35" y="950" type="line"/>
      <point x="35" y="1049" type="line"/>
      <point x="229" y="1049" type="line"/>
      <point x="229" y="1397" type="line"/>
      <point x="365" y="1497" type="line"/>
      <point x="365" y="1049" type="line"/>
      <point x="633" y="1049" type="line"/>
      <point x="633" y="950" type="line"/>
      <point x="365" y="950" type="line"/>
      <point x="365" y="219" type="line" smooth="yes"/>
      <point x="365.0" y="150.343283582"/>
      <point x="431.0" y="86.0"/>
      <point x="481" y="86" type="qcurve" smooth="yes"/>
      <point x="525.776119403" y="86.0"/>
      <point x="621.313432836" y="119.701492537"/>
    </contour>
  </outline>
</glyph>
<glyph name="v" format="1">
  <advance width="946.176"/>
  <unicode hex="0076"/>
  <outline>
    <contour>
      <point x="760" y="1059" type="line"/>
      <point x="893" y="1059" type="line"/>
      <point x="545" y="-12" type="line"/>
      <point x="401" y="-12" type="line"/>
      <point x="53" y="1059" type="line"/>
      <point x="195" y="1059" type="line"/>
      <point x="477" y="131" type="line"/>
    </contour>
  </outline>
</glyph>
<glyph name="w" format="1">
  <advance width="1542.144"/>
  <unicode hex="0077"/>
  <outline>
    <contour>
      <point x="1352" y="1059" type="line"/>
      <point x="1485" y="1059" type="line"/>
      <point x="1157" y="-8" type="line"/>
      <point x="1020" y="-8" type="line"/>
      <point x="772" y="889" type="line"/>
      <point x="524" y="-8" type="line"/>
      <point x="385" y="-8" type="line"/>
      <point x="57" y="1059" type="line"/>
      <point x="199" y="1059" type="line"/>
      <point x="459" y="139" type="line"/>
      <point x="709" y="1059" type="line"/>
      <point x="842" y="1059" type="line"/>
      <point x="1090" y="139" type="line"/>
    </contour>
  </outline>
</glyph>
<glyph name="x" format="1">
  <advance width="968.704"/>
  <unicode hex="0078"/>
  <outline>
    <contour>
      <point x="553" y="543" type="line"/>
      <point x="909" y="0" type="line"/>
      <point x="760" y="0" type="line"/>
      <point x="479" y="446" type="line"/>
      <point x="199" y="0" type="line"/>
      <point x="61" y="0" type="line"/>
      <point x="416" y="535" type="line"/>
      <point x="72" y="1059" type="line"/>
      <point x="221" y="1059" type="line"/>
      <point x="489" y="629" type="line"/>
      <point x="758" y="1059" type="line"/>
      <point x="897" y="1059" type="line"/>
    </contour>
  </outline>
</glyph>
<glyph name="braceleft" format="1">
  <advance width="784.384"/>
  <unicode hex="007B"/>
  <outline>
    <contour>
      <point x="715" y="-84" type="line"/>
      <point x="715" y="-164" type="line"/>
      <point x="549" y="-164" type="line" smooth="yes"/>
      <point x="413.179104478" y="-164.0"/>
      <point x="274.0" y="-30.8955223881"/>
      <point x="274" y="90" type="qcurve" smooth="yes"/>
      <point x="274.0" y="160.149253731"/>
      <point x="315.0" y="347.820895522"/>
      <point x="315" y="412" type="qcurve" smooth="yes"/>
      <point x="315.0" y="520.208955224"/>
      <point x="161.925373134" y="614.0"/>
      <point x="47" y="614" type="qcurve"/>
      <point x="47" y="696" type="line"/>
      <point x="161.925373134" y="696.0"/>
      <point x="315.0" y="790.791044776"/>
      <point x="315" y="899" type="qcurve" smooth="yes"/>
      <point x="315.0" y="963.179104478"/>
      <point x="274.0" y="1150.10447761"/>
      <point x="274" y="1221" type="qcurve" smooth="yes"/>
      <point x="274.0" y="1341.14925373"/>
      <point x="413.179104478" y="1475.0"/>
      <point x="549" y="1475" type="qcurve" smooth="yes"/>
      <point x="715" y="1475" type="line"/>
      <point x="715" y="1395" type="line"/>
      <point x="580" y="1395" type="line" smooth="yes"/>
      <point x="491.194029851" y="1395.0"/>
      <point x="408.0" y="1297.65671642"/>
      <point x="408" y="1229" type="qcurve" smooth="yes"/>
      <point x="408.0" y="1166.31343284"/>
      <point x="449.0" y="991.865671642"/>
      <point x="449" y="915" type="qcurve" smooth="yes"/>
      <point x="449.0" y="797.835820896"/>
      <point x="318.820895522" y="692.358208955"/>
      <point x="233" y="664" type="qcurve"/>
      <point x="233" y="647" type="line"/>
      <point x="318.820895522" y="617.895522388"/>
      <point x="449.0" y="512.910447761"/>
      <point x="449" y="395" type="qcurve" smooth="yes"/>
      <point x="449.0" y="318.880597015"/>
      <point x="408.0" y="144.686567164"/>
      <point x="408" y="82" type="qcurve" smooth="yes"/>
      <point x="408.0" y="13.3432835821"/>
      <point x="491.194029851" y="-84.0"/>
      <point x="580" y="-84" type="qcurve" smooth="yes"/>
    </contour>
  </outline>
</glyph>
<glyph name="braceright" format="1">
  <advance width="784.384"/>
  <unicode hex="007D"/>
  <outline>
    <contour>
      <point x="735" y="696" type="qcurve"/>
      <point x="735" y="614" type="line"/>
      <point x="620.820895522" y="614.0"/>
      <point x="467.0" y="520.208955224"/>
      <point x="467" y="412" type="qcurve" smooth="yes"/>
      <point x="467.0" y="347.820895522"/>
      <point x="508.0" y="160.149253731"/>
      <point x="508" y="90" type="qcurve" smooth="yes"/>
      <point x="508.0" y="-30.8955223881"/>
      <point x="369.567164179" y="-164.0"/>
      <point x="233" y="-164" type="qcurve" smooth="yes"/>
      <point x="68" y="-164" type="line"/>
      <point x="68" y="-84" type="line"/>
      <point x="205" y="-84" type="line" smooth="yes"/>
      <point x="292.313432836" y="-84.0"/>
      <point x="377.0" y="13.3432835821"/>
      <point x="377" y="82" type="qcurve" smooth="yes"/>
      <point x="377.0" y="144.686567164"/>
      <point x="336.0" y="318.880597015"/>
      <point x="336" y="395" type="qcurve" smooth="yes"/>
      <point x="336.0" y="512.910447761"/>
      <point x="465.179104478" y="617.895522388"/>
      <point x="551" y="647" type="qcurve"/>
      <point x="551" y="664" type="line"/>
      <point x="465.179104478" y="692.358208955"/>
      <point x="336.0" y="797.835820896"/>
      <point x="336" y="915" type="qcurve" smooth="yes"/>
      <point x="336.0" y="991.865671642"/>
      <point x="377.0" y="1166.31343284"/>
      <point x="377" y="1229" type="qcurve" smooth="yes"/>
      <point x="377.0" y="1297.65671642"/>
      <point x="292.313432836" y="1395.0"/>
      <point x="205" y="1395" type="qcurve" smooth="yes"/>
      <point x="68" y="1395" type="line"/>
      <point x="68" y="1475" type="line"/>
      <point x="233" y="1475" type="line" smooth="yes"/>
      <point x="369.567164179" y="1475.0"/>
      <point x="508.0" y="1341.14925373"/>
      <point x="508" y="1221" type="qcurve" smooth="yes"/>
      <point x="508.0" y="1150.10447761"/>
      <point x="467.0" y="963.179104478"/>
      <point x="467" y="899" type="qcurve" smooth="yes"/>
      <point x="467.0" y="790.791044776"/>
      <point x="620.820895522" y="696.0"/>
    </contour>
  </outline>
</glyph>
<glyph name="asciitilde" format="1">
  <advance width="792.576"/>
  <unicode hex="007E"/>
  <outline>
    <contour>
      <point x="631" y="684" type="qcurve"/>
      <point x="711" y="684" type="line"/>
      <point x="712.492537313" y="570.567164179"/>
      <point x="629.597014925" y="463.0"/>
      <point x="549" y="463" type="qcurve" smooth="yes"/>
      <point x="464.671641791" y="463.0"/>
      <point x="307.701492537" y="580.0"/>
      <point x="248" y="580" type="qcurve" smooth="yes"/>
      <point x="203.223880597" y="580.0"/>
      <point x="164.0" y="525.208955224"/>
      <point x="164" y="467" type="qcurve"/>
      <point x="82" y="467" type="line"/>
      <point x="82.0" y="579.686567164"/>
      <point x="162.656716418" y="688.0"/>
      <point x="244" y="688" type="qcurve" smooth="yes"/>
      <point x="327.582089552" y="688.0"/>
      <point x="487.298507463" y="571.0"/>
      <point x="547" y="571" type="qcurve" smooth="yes"/>
      <point x="589.537313433" y="571.0"/>
      <point x="631.0" y="624.298507463"/>
    </contour>
  </outline>
</glyph>
<glyph name="exclamdown" format="1">
  <advance width="495.616"/>
  <unicode hex="00A1"/>
  <outline>
    <contour>
      <point x="248" y="1489" type="qcurve" smooth="yes"/>
      <point x="289.044776119" y="1489.0"/>
      <point x="346.0" y="1432.04477612"/>
      <point x="346" y="1391" type="qcurve" smooth="yes"/>
      <point x="346.0" y="1349.20895522"/>
      <point x="289.044776119" y="1292.0"/>
      <point x="248" y="1292" type="qcurve" smooth="yes"/>
      <point x="206.955223881" y="1292.0"/>
      <point x="150.0" y="1349.20895522"/>
      <point x="150" y="1391" type="qcurve" smooth="yes"/>
      <point x="150.0" y="1432.04477612"/>
      <point x="206.955223881" y="1489.0"/>
    </contour>
    <contour>
      <point x="283" y="1051" type="line"/>
      <point x="334" y="0" type="line"/>
      <point x="162" y="0" type="line"/>
      <point x="213" y="1051" type="line"/>
    </contour>
  </outline>
</glyph>
<glyph name="cent" format="1">
  <advance width="940.032"/>
  <unicode hex="00A2"/>
  <outline>
    <contour>
      <point x="743" y="285" type="qcurve"/>
      <point x="848" y="250" type="line"/>
      <point x="800.23880597" y="123.134328358"/>
      <point x="623.343283582" y="-20.0"/>
      <point x="492" y="-20" type="qcurve" smooth="yes"/>
      <point x="451.701492537" y="-20.0"/>
      <point x="379.582089552" y="-4.92537313433"/>
      <point x="346" y="10" type="qcurve"/>
      <point x="266" y="-195" type="line"/>
      <point x="176" y="-195" type="line"/>
      <point x="274" y="49" type="line"/>
      <point x="185.940298507" y="114.671641791"/>
      <point x="86.0" y="361.044776119"/>
      <point x="86" y="520" type="qcurve" smooth="yes"/>
      <point x="86" y="535" type="line" smooth="yes"/>
      <point x="86.0" y="773.059701493"/>
      <point x="311.940298507" y="1079.0"/>
      <point x="500" y="1079" type="qcurve" smooth="yes"/>
      <point x="547.014925373" y="1079.0"/>
      <point x="629.671641791" y="1060.14925373"/>
      <point x="664" y="1040" type="qcurve"/>
      <point x="745" y="1253" type="line"/>
      <point x="838" y="1253" type="line"/>
      <point x="387" y="102" type="line"/>
      <point x="411.626865672" y="88.5671641791"/>
      <point x="467.402985075" y="74.0"/>
      <point x="498" y="74" type="qcurve" smooth="yes"/>
      <point x="583.074626866" y="74.0"/>
      <point x="700.462686567" y="179.029850746"/>
    </contour>
    <contour>
      <point x="330" y="160" type="qcurve"/>
      <point x="627" y="948" type="line"/>
      <point x="600.880597015" y="965.164179104"/>
      <point x="536.059701493" y="985.0"/>
      <point x="498" y="985" type="qcurve" smooth="yes"/>
      <point x="368.149253731" y="985.0"/>
      <point x="215.0" y="737.985074627"/>
      <point x="215" y="535" type="qcurve" smooth="yes"/>
      <point x="215" y="526" type="line" smooth="yes"/>
      <point x="215.0" y="407.343283582"/>
      <point x="276.268656716" y="218.208955224"/>
    </contour>
  </outline>
</glyph>
<glyph name="sterling" format="1">
  <advance width="1169.408"/>
  <unicode hex="00A3"/>
  <outline>
    <contour>
      <point x="1010" y="379" type="qcurve"/>
      <point x="1114" y="344" type="line"/>
      <point x="1080.41791045" y="158.925373134"/>
      <point x="924.47761194" y="-12.0"/>
      <point x="770" y="-12" type="qcurve" smooth="yes"/>
      <point x="664.776119403" y="-12.0"/>
      <point x="488.28358209" y="65.8358208955"/>
      <point x="395" y="133" type="qcurve"/>
      <point x="346.492537313" y="83.0"/>
      <point x="208.820895522" y="10.3880597015"/>
      <point x="123" y="-12" type="qcurve"/>
      <point x="123" y="102" type="line"/>
      <point x="226.731343284" y="132.597014925"/>
      <point x="369.0" y="280.0"/>
      <point x="369" y="430" type="qcurve" smooth="yes"/>
      <point x="369.0" y="500.149253731"/>
      <point x="344.417910448" y="627.791044776"/>
      <point x="328" y="686" type="qcurve"/>
      <point x="80" y="686" type="line"/>
      <point x="80" y="778" type="line"/>
      <point x="299" y="778" type="line"/>
      <point x="272.880597015" y="857.850746269"/>
      <point x="231.0" y="1015.67164179"/>
      <point x="231" y="1100" type="qcurve" smooth="yes"/>
      <point x="231.0" y="1264.92537313"/>
      <point x="438.014925373" y="1499.0"/>
      <point x="641" y="1499" type="qcurve" smooth="yes"/>
      <point x="789.507462687" y="1499.0"/>
      <point x="985.328358209" y="1390.23880597"/>
      <point x="1051" y="1288" type="qcurve"/>
      <point x="940" y="1217" type="line"/>
      <point x="881.791044776" y="1300.58208955"/>
      <point x="739.23880597" y="1389.0"/>
      <point x="637" y="1389" type="qcurve" smooth="yes"/>
      <point x="499.686567164" y="1389.0"/>
      <point x="367.0" y="1225.88059701"/>
      <point x="367" y="1102" type="qcurve" smooth="yes"/>
      <point x="367.0" y="1022.14925373"/>
      <point x="411.880597015" y="862.328358209"/>
      <point x="438" y="778" type="qcurve"/>
      <point x="829" y="778" type="line"/>
      <point x="829" y="686" type="line"/>
      <point x="467" y="686" type="line"/>
      <point x="480.432835821" y="629.28358209"/>
      <point x="502.0" y="502.656716418"/>
      <point x="502" y="434" type="qcurve" smooth="yes"/>
      <point x="502.0" y="374.298507463"/>
      <point x="480.402985075" y="274.28358209"/>
      <point x="461" y="231" type="qcurve"/>
      <point x="540.104477612" y="166.820895522"/>
      <point x="695.850746269" y="102.0"/>
      <point x="766" y="102" type="qcurve" smooth="yes"/>
      <point x="865.253731343" y="102.0"/>
      <point x="982.388059701" y="221.537313433"/>
    </contour>
  </outline>
</glyph>
<glyph name="yen" format="1">
  <advance width="1249.28"/>
  <unicode hex="00A5"/>
  <outline>
    <contour>
      <point x="1055" y="1475" type="line"/>
      <point x="1202" y="1475" type="line"/>
      <point x="813" y="782" type="line"/>
      <point x="1102" y="782" type="line"/>
      <point x="1102" y="692" type="line"/>
      <point x="762" y="692" type="line"/>
      <point x="694" y="569" type="line"/>
      <point x="694" y="408" type="line"/>
      <point x="1102" y="408" type="line"/>
      <point x="1102" y="315" type="line"/>
      <point x="694" y="315" type="line"/>
      <point x="694" y="0" type="line"/>
      <point x="555" y="0" type="line"/>
      <point x="555" y="315" type="line"/>
      <point x="145" y="315" type="line"/>
      <point x="145" y="408" type="line"/>
      <point x="555" y="408" type="line"/>
      <point x="555" y="567" type="line"/>
      <point x="485" y="692" type="line"/>
      <point x="145" y="692" type="line"/>
      <point x="145" y="782" type="line"/>
      <point x="436" y="782" type="line"/>
      <point x="45" y="1475" type="line"/>
      <point x="203" y="1475" type="line"/>
      <point x="629" y="680" type="line"/>
    </contour>
  </outline>
</glyph>
<glyph name="dieresis" format="1">
  <advance width="1024.0"/>
  <unicode hex="00A8"/>
  <outline>
    <contour>
      <point x="406" y="1391" type="line"/>
      <point x="406" y="1212" type="line"/>
      <point x="254" y="1212" type="line"/>
      <point x="254" y="1391" type="line"/>
    </contour>
    <contour>
      <point x="770" y="1391" type="line"/>
      <point x="770" y="1212" type="line"/>
      <point x="618" y="1212" type="line"/>
      <point x="618" y="1391" type="line"/>
    </contour>
  </outline>
</glyph>
<glyph name="copyright" format="1">
  <advance width="1710.08"/>
  <unicode hex="00A9"/>
  <outline>
    <contour>
      <point x="1032" y="616" type="qcurve"/>
      <point x="1133" y="588" type="line"/>
      <point x="1105.3880597" y="465.611940299"/>
      <point x="967.910447761" y="322.0"/>
      <point x="850" y="322" type="qcurve" smooth="yes"/>
      <point x="711.194029851" y="322.0"/>
      <point x="545.0" y="546.462686567"/>
      <point x="545" y="739" type="qcurve" smooth="yes"/>
      <point x="545" y="754" type="line" smooth="yes"/>
      <point x="545.0" y="946.537313433"/>
      <point x="710.208955224" y="1171.0"/>
      <point x="852" y="1171" type="qcurve" smooth="yes"/>
      <point x="965.432835821" y="1171.0"/>
      <point x="1101.13432836" y="1041.1641791"/>
      <point x="1128" y="924" type="qcurve"/>
      <point x="1026" y="895" type="line"/>
      <point x="999.880597015" y="988.28358209"/>
      <point x="920.656716418" y="1081.0"/>
      <point x="852" y="1081" type="qcurve" smooth="yes"/>
      <point x="752.746268657" y="1081.0"/>
      <point x="659.0" y="899.313432836"/>
      <point x="659" y="762" type="qcurve" smooth="yes"/>
      <point x="659" y="735" type="line" smooth="yes"/>
      <point x="659.0" y="597.686567164"/>
      <point x="752.746268657" y="414.0"/>
      <point x="852" y="414" type="qcurve" smooth="yes"/>
      <point x="925.134328358" y="414.0"/>
      <point x="1008.86567164" y="518.23880597"/>
    </contour>
    <contour>
      <point x="856" y="1499" type="qcurve" smooth="yes"/>
      <point x="1176.89552239" y="1499.0"/>
      <point x="1618.0" y="1059.3880597"/>
      <point x="1618" y="737" type="qcurve" smooth="yes"/>
      <point x="1618.0" y="416.104477612"/>
      <point x="1176.3880597" y="-25.0"/>
      <point x="854" y="-25" type="qcurve" smooth="yes"/>
      <point x="533.104477612" y="-25.0"/>
      <point x="94.0" y="414.611940299"/>
      <point x="94" y="737" type="qcurve" smooth="yes"/>
      <point x="94.0" y="1057.89552239"/>
      <point x="533.611940299" y="1499.0"/>
    </contour>
    <contour>
      <point x="856" y="41" type="qcurve" smooth="yes"/>
      <point x="1150.7761194" y="41.0"/>
      <point x="1542.0" y="442.223880597"/>
      <point x="1542" y="737" type="qcurve" smooth="yes"/>
      <point x="1542.0" y="1032.52238806"/>
      <point x="1148.7761194" y="1434.0"/>
      <point x="854" y="1434" type="qcurve" smooth="yes"/>
      <point x="560.71641791" y="1434.0"/>
      <point x="168.0" y="1032.52238806"/>
      <point x="168" y="737" type="qcurve" smooth="yes"/>
      <point x="168.0" y="442.223880597"/>
      <point x="561.223880597" y="41.0"/>
    </contour>
  </outline>
</glyph>
<glyph name="degree" format="1">
  <advance width="819.2"/>
  <unicode hex="00B0"/>
  <outline>
    <contour>
      <point x="410" y="1483" type="qcurve" smooth="yes"/>
      <point x="539.850746269" y="1483.0"/>
      <point x="713.0" y="1313.85074627"/>
      <point x="713" y="1184" type="qcurve" smooth="yes"/>
      <point x="713.0" y="1054.14925373"/>
      <point x="539.850746269" y="885.0"/>
      <point x="410" y="885" type="qcurve" smooth="yes"/>
      <point x="280.149253731" y="885.0"/>
      <point x="106.0" y="1054.14925373"/>
      <point x="106" y="1184" type="qcurve" smooth="yes"/>
      <point x="106.0" y="1313.85074627"/>
      <point x="280.149253731" y="1483.0"/>
    </contour>
    <contour>
      <point x="410" y="969" type="qcurve" smooth="yes"/>
      <point x="499.552238806" y="969.0"/>
      <point x="616.0" y="1090.71641791"/>
      <point x="616" y="1184" type="qcurve" smooth="yes"/>
      <point x="616.0" y="1277.28358209"/>
      <point x="499.552238806" y="1399.0"/>
      <point x="410" y="1399" type="qcurve" smooth="yes"/>
      <point x="319.701492537" y="1399.0"/>
      <point x="203.0" y="1277.28358209"/>
      <point x="203" y="1184" type="qcurve" smooth="yes"/>
      <point x="203.0" y="1090.71641791"/>
      <point x="319.701492537" y="969.0"/>
    </contour>
  </outline>
</glyph>
<glyph name="cedilla" format="1">
  <advance width="1024.0"/>
  <unicode hex="00B8"/>
  <outline>
    <contour>
      <point x="614" y="-92" type="qcurve" smooth="yes"/>
      <point x="679.671641791" y="-92.0"/>
      <point x="760.0" y="-151.298507463"/>
      <point x="760" y="-211" type="qcurve" smooth="yes"/>
      <point x="760.0" y="-304.28358209"/>
      <point x="537.462686567" y="-393.985074627"/>
      <point x="330" y="-391" type="qcurve"/>
      <point x="330" y="-342" type="line"/>
      <point x="505.373134328" y="-339.014925373"/>
      <point x="647.0" y="-277.746268657"/>
      <point x="647" y="-227" type="qcurve" smooth="yes"/>
      <point x="647.0" y="-199.388059701"/>
      <point x="607.805970149" y="-168.0"/>
      <point x="569" y="-168" type="qcurve" smooth="yes"/>
      <point x="536.910447761" y="-168.0"/>
      <point x="483.119402985" y="-180.313432836"/>
      <point x="457" y="-193" type="qcurve"/>
      <point x="412" y="-164" type="line"/>
      <point x="510" y="0" type="line"/>
      <point x="586" y="0" type="line"/>
      <point x="520" y="-111" type="line"/>
      <point x="541.641791045" y="-101.298507463"/>
      <point x="587.134328358" y="-92.0"/>
    </contour>
  </outline>
</glyph>
<glyph name="guillemotright" format="1">
  <advance width="933.888"/>
  <unicode hex="00BB"/>
  <outline>
    <contour>
      <point x="162" y="899" type="line"/>
      <point x="483" y="528" type="line"/>
      <point x="162" y="160" type="line"/>
      <point x="70" y="160" type="line"/>
      <point x="328" y="528" type="line"/>
      <point x="70" y="899" type="line"/>
    </contour>
    <contour>
      <point x="555" y="899" type="line"/>
      <point x="877" y="528" type="line"/>
      <point x="555" y="160" type="line"/>
      <point x="463" y="160" type="line"/>
      <point x="721" y="528" type="line"/>
      <point x="463" y="899" type="line"/>
    </contour>
  </outline>
</glyph>
<glyph name="questiondown" format="1">
  <advance width="905.216"/>
  <unicode hex="00BF"/>
  <outline>
    <contour>
      <point x="754" y="313" type="qcurve"/>
      <point x="862" y="264" type="line"/>
      <point x="805.28358209" y="128.179104478"/>
      <point x="609.955223881" y="-25.0"/>
      <point x="451" y="-25" type="qcurve" smooth="yes"/>
      <point x="286.820895522" y="-25.0"/>
      <point x="92.0" y="165.686567164"/>
      <point x="92" y="303" type="qcurve" smooth="yes"/>
      <point x="92.0" y="420.910447761"/>
      <point x="191.298507463" y="570.776119403"/>
      <point x="301" y="676" type="qcurve" smooth="yes"/>
      <point x="385.328358209" y="756.597014925"/>
      <point x="446.76119403" y="901.0"/>
      <point x="449" y="1051" type="qcurve"/>
      <point x="539" y="1051" type="line"/>
      <point x="544.970149254" y="870.402985075"/>
      <point x="486.253731343" y="694.776119403"/>
      <point x="387" y="600" type="qcurve" smooth="yes"/>
      <point x="307.895522388" y="522.388059701"/>
      <point x="236.0" y="388.850746269"/>
      <point x="236" y="309" type="qcurve" smooth="yes"/>
      <point x="236.0" y="212.731343284"/>
      <point x="352.52238806" y="88.0"/>
      <point x="457" y="88" type="qcurve" smooth="yes"/>
      <point x="568.194029851" y="88.0"/>
      <point x="703.253731343" y="198.820895522"/>
    </contour>
    <contour>
      <point x="494" y="1489" type="qcurve" smooth="yes"/>
      <point x="536.537313433" y="1489.0"/>
      <point x="592.0" y="1432.04477612"/>
      <point x="592" y="1391" type="qcurve" smooth="yes"/>
      <point x="592.0" y="1349.20895522"/>
      <point x="536.537313433" y="1292.0"/>
      <point x="494" y="1292" type="qcurve" smooth="yes"/>
      <point x="452.208955224" y="1292.0"/>
      <point x="397.0" y="1349.20895522"/>
      <point x="397" y="1391" type="qcurve" smooth="yes"/>
      <point x="397.0" y="1432.04477612"/>
      <point x="452.208955224" y="1489.0"/>
    </contour>
  </outline>
</glyph>
<glyph name="Eth" format="1">
  <advance width="1345.536"/>
  <unicode hex="00D0"/>
  <outline>
    <contour>
      <point x="1239" y="750" type="qcurve" smooth="yes"/>
      <point x="1239" y="729" type="line" smooth="yes"/>
      <point x="1239.0" y="384.970149254"/>
      <point x="902.47761194" y="0.0"/>
      <point x="598" y="0" type="qcurve" smooth="yes"/>
      <point x="246" y="0" type="line"/>
      <point x="246" y="713" type="line"/>
      <point x="57" y="713" type="line"/>
      <point x="57" y="829" type="line"/>
      <point x="246" y="829" type="line"/>
      <point x="246" y="1475" type="line"/>
      <point x="606" y="1475" type="line" smooth="yes"/>
      <point x="911.970149254" y="1475.0"/>
      <point x="1239.0" y="1090.29850746"/>
    </contour>
    <contour>
      <point x="604" y="115" type="line" smooth="yes"/>
      <point x="831.611940299" y="115.0"/>
      <point x="1090.0" y="425.71641791"/>
      <point x="1090" y="719" type="qcurve" smooth="yes"/>
      <point x="1090" y="754" type="line" smooth="yes"/>
      <point x="1090.0" y="1048.7761194"/>
      <point x="836.298507463" y="1360.0"/>
      <point x="596" y="1360" type="qcurve" smooth="yes"/>
      <point x="387" y="1360" type="line"/>
      <point x="387" y="829" type="line"/>
      <point x="676" y="829" type="line"/>
      <point x="676" y="713" type="line"/>
      <point x="387" y="713" type="line"/>
      <point x="387" y="115" type="line"/>
    </contour>
  </outline>
</glyph>
<glyph name="ccedilla" format="1">
  <advance width="909.312"/>
  <unicode hex="00E7"/>
  <outline>
    <contour>
      <point x="737" y="285" type="qcurve"/>
      <point x="848" y="250" type="line"/>
      <point x="803.223880597" y="130.597014925"/>
      <point x="639.402985075" y="-12.5373134328"/>
      <point x="520" y="-20" type="qcurve"/>
      <point x="465" y="-111" type="line"/>
      <point x="488.134328358" y="-101.298507463"/>
      <point x="533.388059701" y="-92.0"/>
      <point x="561" y="-92" type="qcurve" smooth="yes"/>
      <point x="626.671641791" y="-92.0"/>
      <point x="707.0" y="-151.298507463"/>
      <point x="707" y="-211" type="qcurve" smooth="yes"/>
      <point x="707.0" y="-304.28358209"/>
      <point x="483.701492537" y="-393.985074627"/>
      <point x="274" y="-391" type="qcurve"/>
      <point x="274" y="-342" type="line"/>
      <point x="450.119402985" y="-339.014925373"/>
      <point x="594.0" y="-277.746268657"/>
      <point x="594" y="-227" type="qcurve" smooth="yes"/>
      <point x="594.0" y="-199.388059701"/>
      <point x="552.567164179" y="-168.0"/>
      <point x="516" y="-168" type="qcurve" smooth="yes"/>
      <point x="483.910447761" y="-168.0"/>
      <point x="429.119402985" y="-180.313432836"/>
      <point x="403" y="-193" type="qcurve"/>
      <point x="358" y="-164" type="line"/>
      <point x="446" y="-18" type="line"/>
      <point x="282.567164179" y="1.40298507463"/>
      <point x="86.0" y="293.880597015"/>
      <point x="86" y="520" type="qcurve" smooth="yes"/>
      <point x="86" y="535" type="line" smooth="yes"/>
      <point x="86.0" y="773.059701493"/>
      <point x="311.940298507" y="1079.0"/>
      <point x="500" y="1079" type="qcurve" smooth="yes"/>
      <point x="631.343283582" y="1079.0"/>
      <point x="795.731343284" y="941.388059701"/>
      <point x="842" y="819" type="qcurve"/>
      <point x="727" y="782" type="line"/>
      <point x="688.940298507" y="876.776119403"/>
      <point x="584.059701493" y="981.0"/>
      <point x="496" y="981" type="qcurve" smooth="yes"/>
      <point x="367.641791045" y="981.0"/>
      <point x="221.0" y="736.492537313"/>
      <point x="221" y="535" type="qcurve" smooth="yes"/>
      <point x="221" y="526" type="line" smooth="yes"/>
      <point x="221.0" y="324.507462687"/>
      <point x="368.149253731" y="78.0"/>
      <point x="498" y="78" type="qcurve" smooth="yes"/>
      <point x="583.074626866" y="78.0"/>
      <point x="694.462686567" y="182.014925373"/>
    </contour>
  </outline>
</glyph>
<glyph name="oslash" format="1">
  <advance width="1007.616"/>
  <unicode hex="00F8"/>
  <outline>
    <contour>
      <point x="920" y="539" type="qcurve" smooth="yes"/>
      <point x="920" y="524" type="line" smooth="yes"/>
      <point x="920.0" y="285.940298507"/>
      <point x="695.044776119" y="-20.0"/>
      <point x="504" y="-20" type="qcurve" smooth="yes"/>
      <point x="444.298507463" y="-20.0"/>
      <point x="341.029850746" y="11.8955223881"/>
      <point x="297" y="41" type="qcurve"/>
      <point x="178" y="-195" type="line"/>
      <point x="86" y="-195" type="line"/>
      <point x="233" y="88" type="line"/>
      <point x="162.850746269" y="159.641791045"/>
      <point x="86.0" y="382.686567164"/>
      <point x="86" y="520" type="qcurve" smooth="yes"/>
      <point x="86" y="535" type="line" smooth="yes"/>
      <point x="86.0" y="773.059701493"/>
      <point x="312.955223881" y="1079.0"/>
      <point x="504" y="1079" type="qcurve" smooth="yes"/>
      <point x="562.208955224" y="1079.0"/>
      <point x="666.223880597" y="1047.10447761"/>
      <point x="711" y="1018" type="qcurve"/>
      <point x="829" y="1253" type="line"/>
      <point x="920" y="1253" type="line"/>
      <point x="772" y="969" type="line"/>
      <point x="843.641791045" y="898.104477612"/>
      <point x="920.0" y="674.820895522"/>
    </contour>
    <contour>
      <point x="504" y="70" type="qcurve" smooth="yes"/>
      <point x="638.328358209" y="70.0"/>
      <point x="793.0" y="315.52238806"/>
      <point x="793" y="520" type="qcurve" smooth="yes"/>
      <point x="793" y="535" type="line" smooth="yes"/>
      <point x="793.0" y="634.253731343"/>
      <point x="752.552238806" y="807.791044776"/>
      <point x="713" y="866" type="qcurve"/>
      <point x="340" y="131" type="line"/>
      <point x="373.582089552" y="101.895522388"/>
      <point x="456.23880597" y="70.0"/>
    </contour>
    <contour>
      <point x="293" y="190" type="qcurve"/>
      <point x="664" y="926" type="line"/>
      <point x="631.910447761" y="956.597014925"/>
      <point x="551.014925373" y="989.0"/>
      <point x="504" y="989" type="qcurve" smooth="yes"/>
      <point x="368.179104478" y="989.0"/>
      <point x="215.0" y="741.985074627"/>
      <point x="215" y="539" type="qcurve" smooth="yes"/>
      <point x="215" y="524" type="line" smooth="yes"/>
      <point x="215.0" y="424.746268657"/>
      <point x="253.447761194" y="248.208955224"/>
    </contour>
  </outline>
</glyph>
<glyph name="thorn" format="1">
  <advance width="1050.624"/>
  <unicode hex="00FE"/>
  <outline>
    <contour>
      <point x="963" y="539" type="qcurve" smooth="yes"/>
      <point x="963" y="524" type="line" smooth="yes"/>
      <point x="963.0" y="259.820895522"/>
      <point x="747.044776119" y="-20.0"/>
      <point x="606" y="-20" type="qcurve" smooth="yes"/>
      <point x="497.791044776" y="-20.0"/>
      <point x="347.71641791" y="115.805970149"/>
      <point x="291" y="227" type="qcurve"/>
      <point x="279" y="227" type="line"/>
      <point x="279" y="-385" type="line"/>
      <point x="143" y="-385" type="line"/>
      <point x="143" y="1511" type="line"/>
      <point x="279" y="1559" type="line"/>
      <point x="279" y="827" type="line"/>
      <point x="291" y="827" type="line"/>
      <point x="352.194029851" y="941.925373134"/>
      <point x="497.313432836" y="1077.0"/>
      <point x="610" y="1077" type="qcurve" smooth="yes"/>
      <point x="758.507462687" y="1077.0"/>
      <point x="963.0" y="804.671641791"/>
    </contour>
    <contour>
      <point x="567" y="78" type="qcurve" smooth="yes"/>
      <point x="672.970149254" y="78.0"/>
      <point x="829.0" y="296.895522388"/>
      <point x="829" y="526" type="qcurve" smooth="yes"/>
      <point x="829.0" y="767.791044776"/>
      <point x="669.47761194" y="981.0"/>
      <point x="565" y="981" type="qcurve" smooth="yes"/>
      <point x="442.611940299" y="981.0"/>
      <point x="274.0" y="708.597014925"/>
      <point x="274" y="528" type="qcurve" smooth="yes"/>
      <point x="274.0" y="349.641791045"/>
      <point x="441.626865672" y="78.0"/>
    </contour>
  </outline>
</glyph>
<glyph name="Lslash" format="1">
  <advance width="1118.208"/>
  <unicode hex="0141"/>
  <outline>
    <contour>
      <point x="1081" y="121" type="line"/>
      <point x="1081" y="0" type="line"/>
      <point x="246" y="0" type="line"/>
      <point x="246" y="670" type="line"/>
      <point x="57" y="582" type="line"/>
      <point x="57" y="709" type="line"/>
      <point x="246" y="795" type="line"/>
      <point x="246" y="1475" type="line"/>
      <point x="389" y="1475" type="line"/>
      <point x="389" y="856" type="line"/>
      <point x="692" y="997" type="line"/>
      <point x="692" y="870" type="line"/>
      <point x="389" y="729" type="line"/>
      <point x="389" y="121" type="line"/>
    </contour>
  </outline>
</glyph>
<glyph name="OE" format="1">
  <advance width="1818.624"/>
  <unicode hex="0152"/>
  <outline>
    <contour>
      <point x="1739" y="115" type="line"/>
      <point x="1739" y="0" type="line"/>
      <point x="748" y="0" type="line" smooth="yes"/>
      <point x="437.552238806" y="0.0"/>
      <point x="109.0" y="383.955223881"/>
      <point x="109" y="725" type="qcurve" smooth="yes"/>
      <point x="109" y="745" type="line" smooth="yes"/>
      <point x="109.0" y="1089.02985075"/>
      <point x="447.552238806" y="1475.0"/>
      <point x="758" y="1475" type="qcurve" smooth="yes"/>
      <point x="1714" y="1475" type="line"/>
      <point x="1714" y="1360" type="line"/>
      <point x="1049" y="1360" type="line"/>
      <point x="1049" y="827" type="line"/>
      <point x="1593" y="827" type="line"/>
      <point x="1593" y="715" type="line"/>
      <point x="1049" y="715" type="line"/>
      <point x="1049" y="115" type="line"/>
    </contour>
    <contour>
      <point x="760" y="115" type="qcurve" smooth="yes"/>
      <point x="905" y="115" type="line"/>
      <point x="905" y="1360" type="line"/>
      <point x="752" y="1360" type="line" smooth="yes"/>
      <point x="520.656716418" y="1360.0"/>
      <point x="256.0" y="1049.79104478"/>
      <point x="256" y="758" type="qcurve" smooth="yes"/>
      <point x="256" y="721" type="line" smooth="yes"/>
      <point x="256.0" y="426.223880597"/>
      <point x="516.71641791" y="115.0"/>
    </contour>
  </outline>
</glyph>
<glyph name="caron" format="1">
  <advance width="1024.0"/>
  <unicode hex="02C7"/>
  <outline>
    <contour>
      <point x="752" y="1536" type="line"/>
      <point x="827" y="1536" type="line"/>
      <point x="573" y="1212" type="line"/>
      <point x="451" y="1212" type="line"/>
      <point x="197" y="1536" type="line"/>
      <point x="276" y="1536" type="line"/>
      <point x="514" y="1319" type="line"/>
    </contour>
  </outline>
</glyph>
<glyph name="breve" format="1">
  <advance width="1024.0"/>
  <unicode hex="02D8"/>
  <outline>
    <contour>
      <point x="735" y="1536" type="qcurve"/>
      <point x="815" y="1536" type="line"/>
      <point x="807.537313433" y="1381.52238806"/>
      <point x="650.805970149" y="1206.0"/>
      <point x="512" y="1206" type="qcurve" smooth="yes"/>
      <point x="373.194029851" y="1206.0"/>
      <point x="216.462686567" y="1381.52238806"/>
      <point x="209" y="1536" type="qcurve"/>
      <point x="289" y="1536" type="line"/>
      <point x="302.432835821" y="1421.07462687"/>
      <point x="417.223880597" y="1313.0"/>
      <point x="512" y="1313" type="qcurve" smooth="yes"/>
      <point x="606.776119403" y="1313.0"/>
      <point x="721.567164179" y="1421.07462687"/>
    </contour>
  </outline>
</glyph>
<glyph name="ogonek" format="1">
  <advance width="1024.0"/>
  <unicode hex="02DB"/>
  <outline>
    <contour>
      <point x="737" y="-268" type="qcurve"/>
      <point x="760" y="-317" type="line"/>
      <point x="698.805970149" y="-350.582089552"/>
      <point x="572.686567164" y="-389.0"/>
      <point x="510" y="-389" type="qcurve" smooth="yes"/>
      <point x="421.194029851" y="-389.0"/>
      <point x="311.0" y="-309.134328358"/>
      <point x="311" y="-236" type="qcurve" smooth="yes"/>
      <point x="311.0" y="-168.089552239"/>
      <point x="417.641791045" y="-45.5223880597"/>
      <point x="496" y="0" type="qcurve"/>
      <point x="575" y="0" type="line"/>
      <point x="503.358208955" y="-52.2388059701"/>
      <point x="428.0" y="-163.268656716"/>
      <point x="428" y="-217" type="qcurve" smooth="yes"/>
      <point x="428.0" y="-259.537313433"/>
      <point x="489.746268657" y="-313.0"/>
      <point x="539" y="-313" type="qcurve" smooth="yes"/>
      <point x="589.0" y="-313.0"/>
      <point x="684.014925373" y="-289.641791045"/>
    </contour>
  </outline>
</glyph>
<glyph name="tilde" format="1">
  <advance width="1024.0"/>
  <unicode hex="02DC"/>
  <outline>
    <contour>
      <point x="745" y="1434" type="qcurve"/>
      <point x="827" y="1434" type="line"/>
      <point x="827.0" y="1320.56716418"/>
      <point x="746.089552239" y="1214.0"/>
      <point x="664" y="1214" type="qcurve" smooth="yes"/>
      <point x="579.671641791" y="1214.0"/>
      <point x="421.701492537" y="1329.0"/>
      <point x="362" y="1329" type="qcurve" smooth="yes"/>
      <point x="319.462686567" y="1329.0"/>
      <point x="279.0" y="1276.46268657"/>
      <point x="279" y="1219" type="qcurve"/>
      <point x="197" y="1219" type="line"/>
      <point x="197.0" y="1330.19402985"/>
      <point x="277.910447761" y="1438.0"/>
      <point x="360" y="1438" type="qcurve" smooth="yes"/>
      <point x="444.328358209" y="1438.0"/>
      <point x="602.298507463" y="1323.0"/>
      <point x="662" y="1323" type="qcurve" smooth="yes"/>
      <point x="704.537313433" y="1323.0"/>
      <point x="745.0" y="1375.79104478"/>
    </contour>
  </outline>
</glyph>
<glyph name="hungarumlaut" format="1">
  <advance width="1024.0"/>
  <unicode hex="02DD"/>
  <outline>
    <contour>
      <point x="342" y="1522" type="line"/>
      <point x="524" y="1522" type="line"/>
      <point x="244" y="1212" type="line"/>
      <point x="156" y="1212" type="line"/>
    </contour>
    <contour>
      <point x="696" y="1522" type="line"/>
      <point x="881" y="1522" type="line"/>
      <point x="600" y="1212" type="line"/>
      <point x="510" y="1212" type="line"/>
    </contour>
  </outline>
</glyph>
<glyph name="quoteleft" format="1">
  <advance width="380.928"/>
  <unicode hex="2018"/>
  <unicode hex="02BB"/>
  <outline>
    <contour>
      <point x="225" y="1475" type="line"/>
      <point x="293" y="1034" type="line"/>
      <point x="209" y="1034" type="line"/>
      <point x="66" y="1475" type="line"/>
    </contour>
  </outline>
</glyph>
<glyph name="quotedblleft" format="1">
  <advance width="684.032"/>
  <unicode hex="201C"/>
  <outline>
    <contour>
      <point x="223" y="1475" type="line"/>
      <point x="293" y="1034" type="line"/>
      <point x="209" y="1034" type="line"/>
      <point x="66" y="1475" type="line"/>
    </contour>
    <contour>
      <point x="528" y="1475" type="line"/>
      <point x="596" y="1034" type="line"/>
      <point x="512" y="1034" type="line"/>
      <point x="371" y="1475" type="line"/>
    </contour>
  </outline>
</glyph>
<glyph name="quotedblbase" format="1">
  <advance width="684.032"/>
  <unicode hex="201E"/>
  <outline>
    <contour>
      <point x="133" y="197" type="line"/>
      <point x="291" y="197" type="line"/>
      <point x="147" y="-244" type="line"/>
      <point x="63" y="-244" type="line"/>
    </contour>
    <contour>
      <point x="436" y="197" type="line"/>
      <point x="594" y="197" type="line"/>
      <point x="453" y="-244" type="line"/>
      <point x="369" y="-244" type="line"/>
    </contour>
  </outline>
</glyph>
<glyph name="perthousand" format="1">
  <advance width="2484.224"/>
  <unicode hex="2030"/>
  <outline>
    <contour>
      <point x="403" y="1489" type="qcurve" smooth="yes"/>
      <point x="542.552238806" y="1489.0"/>
      <point x="733.0" y="1273.85074627"/>
      <point x="733" y="1094" type="qcurve" smooth="yes"/>
      <point x="733.0" y="914.895522388"/>
      <point x="538.552238806" y="700.0"/>
      <point x="399" y="700" type="qcurve" smooth="yes"/>
      <point x="258.701492537" y="700.0"/>
      <point x="70.0" y="914.895522388"/>
      <point x="70" y="1094" type="qcurve" smooth="yes"/>
      <point x="70.0" y="1272.35820896"/>
      <point x="262.701492537" y="1489.0"/>
    </contour>
    <contour>
      <point x="401" y="797" type="qcurve" smooth="yes"/>
      <point x="498.76119403" y="797.0"/>
      <point x="614.0" y="956.925373134"/>
      <point x="614" y="1092" type="qcurve" smooth="yes"/>
      <point x="614.0" y="1226.32835821"/>
      <point x="501.0" y="1393.0"/>
      <point x="401" y="1393" type="qcurve" smooth="yes"/>
      <point x="301.746268657" y="1393.0"/>
      <point x="186.0" y="1230.32835821"/>
      <point x="186" y="1096" type="qcurve" smooth="yes"/>
      <point x="186.0" y="960.925373134"/>
      <point x="300.253731343" y="797.0"/>
    </contour>
    <contour>
      <point x="1303" y="774" type="qcurve" smooth="yes"/>
      <point x="1443.29850746" y="774.0"/>
      <point x="1632.0" y="560.104477612"/>
      <point x="1632" y="381" type="qcurve" smooth="yes"/>
      <point x="1632.0" y="201.895522388"/>
      <point x="1439.04477612" y="-14.0"/>
      <point x="1298" y="-14" type="qcurve" smooth="yes"/>
      <point x="1157.70149254" y="-14.0"/>
      <point x="969.0" y="200.402985075"/>
      <point x="969" y="381" type="qcurve" smooth="yes"/>
      <point x="969.0" y="560.104477612"/>
      <point x="1161.95522388" y="774.0"/>
    </contour>
    <contour>
      <point x="1300" y="82" type="qcurve" smooth="yes"/>
      <point x="1398.50746269" y="82.0"/>
      <point x="1513.0" y="244.671641791"/>
      <point x="1513" y="379" type="qcurve" smooth="yes"/>
      <point x="1513.0" y="513.328358209"/>
      <point x="1400.0" y="678.0"/>
      <point x="1300" y="678" type="qcurve" smooth="yes"/>
      <point x="1200.74626866" y="678.0"/>
      <point x="1087.0" y="517.328358209"/>
      <point x="1087" y="383" type="qcurve" smooth="yes"/>
      <point x="1087.0" y="248.671641791"/>
      <point x="1200.74626866" y="82.0"/>
    </contour>
    <contour>
      <point x="2085" y="774" type="qcurve" smooth="yes"/>
      <point x="2225.29850746" y="774.0"/>
      <point x="2415.0" y="560.104477612"/>
      <point x="2415" y="381" type="qcurve" smooth="yes"/>
      <point x="2415.0" y="201.895522388"/>
      <point x="2221.29850746" y="-14.0"/>
      <point x="2081" y="-14" type="qcurve" smooth="yes"/>
      <point x="1939.95522388" y="-14.0"/>
      <point x="1751.0" y="200.402985075"/>
      <point x="1751" y="381" type="qcurve" smooth="yes"/>
      <point x="1751.0" y="560.104477612"/>
      <point x="1943.95522388" y="774.0"/>
    </contour>
    <contour>
      <point x="2083" y="82" type="qcurve" smooth="yes"/>
      <point x="2180.76119403" y="82.0"/>
      <point x="2296.0" y="244.671641791"/>
      <point x="2296" y="379" type="qcurve" smooth="yes"/>
      <point x="2296.0" y="513.328358209"/>
      <point x="2182.25373134" y="678.0"/>
      <point x="2083" y="678" type="qcurve" smooth="yes"/>
      <point x="1985.23880597" y="678.0"/>
      <point x="1870.0" y="517.328358209"/>
      <point x="1870" y="383" type="qcurve" smooth="yes"/>
      <point x="1870.0" y="248.671641791"/>
      <point x="1983.74626866" y="82.0"/>
    </contour>
    <contour>
      <point x="1237" y="1475" type="line"/>
      <point x="1364" y="1475" type="line"/>
      <point x="891" y="719" type="line"/>
      <point x="465" y="0" type="line"/>
      <point x="336" y="0" type="line"/>
      <point x="811" y="756" type="line"/>
    </contour>
  </outline>
</glyph>
<glyph name="fraction" format="1">
  <advance width="757.76"/>
  <unicode hex="2044"/>
  <outline>
    <contour>
      <point x="700" y="1505" type="line"/>
      <point x="834" y="1505" type="line"/>
      <point x="55" y="-31" type="line"/>
      <point x="-78" y="-31" type="line"/>
    </contour>
  </outline>
</glyph>
<glyph name="radical" format="1">
  <advance width="1150.976"/>
  <unicode hex="221A"/>
  <outline>
    <contour>
      <point x="940" y="1475" type="line"/>
      <point x="1090" y="1475" type="line"/>
      <point x="551" y="-6" type="line"/>
      <point x="399" y="-6" type="line"/>
      <point x="82" y="696" type="line"/>
      <point x="227" y="696" type="line"/>
      <point x="475" y="119" type="line"/>
    </contour>
  </outline>
</glyph>
<glyph name="f_f_l" format="1">
  <advance width="1701.888"/>
  <unicode hex="FB04"/>
  <outline>
    <contour>
      <point x="1272" y="1528" type="qcurve"/>
      <point x="1272" y="1417" type="line"/>
      <point x="1239.91044776" y="1434.1641791"/>
      <point x="1159.2238806" y="1456.0"/>
      <point x="1104" y="1456" type="qcurve" smooth="yes"/>
      <point x="1035.34328358" y="1456.0"/>
      <point x="961.0" y="1370.29850746"/>
      <point x="961" y="1280" type="qcurve" smooth="yes"/>
      <point x="961" y="1049" type="line"/>
      <point x="1225" y="1049" type="line"/>
      <point x="1225" y="950" type="line"/>
      <point x="961" y="950" type="line"/>
      <point x="961" y="0" type="line"/>
      <point x="825" y="0" type="line"/>
      <point x="825" y="950" type="line"/>
      <point x="383" y="950" type="line"/>
      <point x="383" y="0" type="line"/>
      <point x="248" y="0" type="line"/>
      <point x="248" y="950" type="line"/>
      <point x="35" y="950" type="line"/>
      <point x="35" y="1049" type="line"/>
      <point x="248" y="1049" type="line"/>
      <point x="248" y="1274" type="line" smooth="yes"/>
      <point x="248.0" y="1414.29850746"/>
      <point x="393.104477612" y="1554.0"/>
      <point x="514" y="1554" type="qcurve" smooth="yes"/>
      <point x="576.686567164" y="1554.0"/>
      <point x="658.925373134" y="1539.94029851"/>
      <point x="694" y="1528" type="qcurve"/>
      <point x="694" y="1417" type="line"/>
      <point x="661.910447761" y="1434.1641791"/>
      <point x="581.223880597" y="1456.0"/>
      <point x="526" y="1456" type="qcurve" smooth="yes"/>
      <point x="457.343283582" y="1456.0"/>
      <point x="383.0" y="1370.29850746"/>
      <point x="383" y="1280" type="qcurve" smooth="yes"/>
      <point x="383" y="1049" type="line"/>
      <point x="825" y="1049" type="line"/>
      <point x="825" y="1274" type="line" smooth="yes"/>
      <point x="825.0" y="1414.29850746"/>
      <point x="971.104477612" y="1554.0"/>
      <point x="1092" y="1554" type="qcurve" smooth="yes"/>
      <point x="1154.68656716" y="1554.0"/>
      <point x="1236.92537313" y="1539.94029851"/>
    </contour>
    <contour>
      <point x="1540" y="1559" type="line"/>
      <point x="1540" y="0" type="line"/>
      <point x="1403" y="0" type="line"/>
      <point x="1403" y="1511" type="line"/>
    </contour>
  </outline>
</glyph>
<glyph name="bullet" format="1">
  <advance width="739.328"/>
  <outline>
    <contour>
      <point x="369" y="1016" type="qcurve" smooth="yes"/>
      <point x="474.223880597" y="1016.0"/>
      <point x="621.0" y="869.223880597"/>
      <point x="621" y="764" type="qcurve" smooth="yes"/>
      <point x="621.0" y="658.776119403"/>
      <point x="474.223880597" y="512.0"/>
      <point x="369" y="512" type="qcurve" smooth="yes"/>
      <point x="263.029850746" y="512.0"/>
      <point x="117.0" y="658.776119403"/>
      <point x="117" y="764" type="qcurve" smooth="yes"/>
      <point x="117.0" y="869.223880597"/>
      <point x="263.029850746" y="1016.0"/>
    </contour>
  </outline>
</glyph>
<glyph name="endash.uc" format="1">
  <advance width="1228.8"/>
  <outline>
    <contour>
      <point x="1135" y="793" type="line"/>
      <point x="1135" y="662" type="line"/>
      <point x="94" y="662" type="line"/>
      <point x="94" y="793" type="line"/>
    </contour>
  </outline>
</glyph>
<glyph name="macron" format="1">
  <advance width="1024.0"/>
  <outline>
    <contour>
      <point x="797" y="1401" type="line"/>
      <point x="797" y="1292" type="line"/>
      <point x="227" y="1292" type="line"/>
      <point x="227" y="1401" type="line"/>
    </contour>
  </outline>
</glyph>
